<svg width="14px" height="14px" viewBox="0 0 14 14" version="1.1" xmlns="http://www.w3.org/2000/svg"><path stroke="none" fill-rule="evenodd" fill-opacity="0.35" fill="#000000" d="M0,7.5 C0,7.5 2.8,3 7,3 C11.2,3 14,7.5 14,7.5 C14,7.5 11.2,12 7,12 C2.8,12 0,7.5 0,7.5 L0,7.5 Z M7,4.5 C8.5463,4.5 9.8,5.84325 9.8,7.5 C9.8,9.15675 8.5463,10.5 7,10.5 C5.4537,10.5 4.2,9.15675 4.2,7.5 C4.2,5.84325 5.4537,4.5 7,4.5 L7,4.5 Z M7,6 C7.7735,6 8.4,6.67125 8.4,7.5 C8.4,8.328 7.7735,9 7,9 C6.2272,9 5.6,8.328 5.6,7.5 C5.6,6.67125 6.2272,6 7,6 L7,6 Z"></path></svg>
