<svg width="14px" height="14px" viewBox="0 0 14 14" version="1.1" xmlns="http://www.w3.org/2000/svg"><path stroke="none" fill-rule="evenodd" fill="#605D5D" d="M12,5.59992209 L12,4.66660174 C12,4.66660174 11.938,0 7,0 C2.062,0 2,4.66660174 2,4.66660174 L2,5.59992209 L1,5.59992209 L1,12.1331646 C1,12.1331646 1,13.9998052 3,13.9998052 L11,13.9998052 C11,13.9998052 13,14.0586044 13,12.1331646 L13,5.59992209 L12,5.59992209 L12,5.59992209 Z M10,5.59992209 L4,5.59992209 L4,4.66660174 C4,4.66660174 4,1.86664069 7,1.86664069 C10,1.86664069 10,4.66660174 10,4.66660174 L10,5.59992209 L10,5.59992209 Z"></path></svg>
