<svg width="67" height="32" viewBox="0 0 67 32" fill="none" xmlns="http://www.w3.org/2000/svg">
<path d="M35.4021 23.1066H34.1421V9.24659H26.7711V10.6011C26.7711 14.8221 26.6136 19.7361 25.1646 23.1066H24.1881V28.2411H26.3931V25.1226H33.1971V28.2411H35.4021V23.1066ZM46.0806 24.0516L45.5136 22.1616C44.8836 22.6026 43.7811 23.2326 42.3951 23.2326C40.4421 23.2326 39.4341 21.3426 39.4341 17.7516H46.0491V16.3971C46.0491 11.0106 44.3166 9.02609 41.6706 9.02609C38.3001 9.02609 36.8826 12.7431 36.8826 17.8461C36.8826 22.7286 38.8986 25.3431 42.1746 25.3431C43.7496 25.3431 45.0726 24.8391 46.0806 24.0516ZM20.3451 9.24659V15.9876H16.6911V9.24659H14.2341V25.1226H16.6911V18.0036H20.3451V25.1226H22.7706V9.24659H20.3451ZM55.2156 25.1226H57.8931L53.3886 16.7121L57.3261 9.24659H54.8376L51.0261 16.5861V9.24659H48.5691V25.1226H51.0261V17.2161L55.2156 25.1226ZM63.6576 25.3431C65.1066 25.3431 66.1146 24.8706 66.9651 24.1461L66.3981 22.3191C65.8311 22.8231 64.9176 23.2956 63.7206 23.2956C61.7361 23.2956 60.7911 21.0276 60.7911 17.0586C60.7911 13.0581 62.0511 11.0736 63.8151 11.0736C64.8231 11.0736 65.7681 11.6091 66.4296 12.1761L66.7761 9.84509C66.0831 9.40409 65.2641 9.02609 63.8466 9.02609C60.1296 9.02609 58.2081 12.2076 58.2081 17.1846C58.2081 22.6026 60.2556 25.3431 63.6576 25.3431ZM31.7166 23.1066H27.4956C28.8186 19.7361 28.9761 14.8536 28.9761 11.5146V11.2311H31.7166V23.1066ZM41.6706 11.0421C43.0881 11.0421 43.5291 13.0266 43.5291 15.7356H39.4656C39.6231 12.9006 40.1586 11.0421 41.6706 11.0421Z" fill="#000"/>
<path d="M8.6625 16.4916V25.1226H11.088V2.6001H7.4655C3.906 2.6001 0.9135 4.9626 0.9135 9.6876C0.9135 13.0581 2.2365 14.8851 4.221 15.8931L0 25.1226H2.8035L6.6465 16.4916H8.6625ZM8.6625 14.4756H7.371C5.2605 14.4756 3.528 13.3101 3.528 9.6876C3.528 5.9391 5.418 4.6476 7.371 4.6476H8.6625V14.4756Z" fill="#FF0000"/>
</svg>
