<svg width="70" height="32" viewBox="0 0 70 32" fill="none" xmlns="http://www.w3.org/2000/svg">
<path d="M19.6543 21.7316C19.2133 22.4246 18.3628 22.9916 17.5123 22.9916C16.2523 22.9916 15.6538 21.7946 15.6538 19.9676C15.6538 17.9201 16.3153 16.5656 19.3708 16.5656H19.6543V21.7316ZM22.0798 21.2591V13.7936C22.0798 9.95064 20.5363 8.75364 17.7328 8.75364C16.1263 8.75364 14.6773 9.41514 13.9528 10.0136L14.4253 12.1871C15.2443 11.4626 16.3153 10.8011 17.5753 10.8011C18.9613 10.8011 19.6543 11.6831 19.6543 13.7621V14.7071H19.3078C14.8663 14.7071 13.1338 16.8491 13.1338 20.2511C13.1338 23.3696 14.6773 25.0706 16.9453 25.0706C18.3313 25.0706 19.2133 24.4721 19.9063 23.5901H20.0638C20.0953 23.9996 20.1898 24.5036 20.2843 24.8501H22.3633C22.2373 24.0941 22.0798 22.7711 22.0798 21.2591ZM27.5923 12.5336C28.1593 11.7461 29.0413 10.9586 30.0808 10.9586C31.0258 10.9586 31.5613 11.3681 31.5613 12.5651V24.8501H34.0498V12.3446C34.0498 9.91914 32.9473 8.75364 30.8683 8.75364C29.3878 8.75364 28.1908 9.73014 27.7498 10.3286H27.5923V8.94264H25.1353V24.8501H27.5923V12.5336ZM41.2948 25.0706C42.5863 25.0706 43.4683 24.4721 44.1613 23.5901H44.3188L44.5078 24.8501H46.3348V2.32764H43.8778V9.35214C43.4053 9.00564 42.6178 8.75364 41.8618 8.75364C38.6803 8.75364 36.4753 11.6201 36.4753 17.5106C36.4753 22.4246 38.1763 25.0706 41.2948 25.0706ZM43.8778 21.7631C43.4683 22.3931 42.8068 22.9916 41.5783 22.9916C39.7828 22.9916 39.0898 20.7236 39.0898 17.0066C39.0898 13.7621 40.0348 10.7696 42.0193 10.7696C42.8383 10.7696 43.3738 11.0216 43.8778 11.5256V21.7631ZM57.8953 23.7791L57.3283 21.8891C56.6983 22.3301 55.6903 22.9601 54.3043 22.9601C52.3513 22.9601 51.3433 21.0701 51.3433 17.4791H57.9583V16.1246C57.9583 10.7381 56.2258 8.75364 53.5798 8.75364C50.2093 8.75364 48.7918 12.4706 48.7918 17.5736C48.7918 22.4561 50.8078 25.0706 54.0838 25.0706C55.6588 25.0706 56.8873 24.5666 57.8953 23.7791ZM53.5798 10.7696C54.9973 10.7696 55.4383 12.7541 55.4383 15.4631H51.3748C51.5323 12.6281 52.0678 10.7696 53.5798 10.7696ZM66.2428 8.97414L64.0693 14.7386L62.0218 8.97414H59.4703L62.4628 16.6286L59.1553 24.8501H61.5808L63.9748 18.2981L66.4318 24.8501H68.9833L65.6758 16.4081L68.6368 8.97414H66.2428Z" fill="#000"/>
<path d="M8.875 24.8535V16.884L14.734 0H12.2455L7.678 13.482L3.709 2.331H1L6.3865 16.7895V24.8535H8.875Z" fill="#FF0000"/>
</svg>
