<svg width="18" height="19" xmlns="http://www.w3.org/2000/svg"><path d="M5.829 2.003H11.5c2.477 0 4.5 1.5 4.5 4s-2.019 4-4.504 4h-6c-1.378 0-2.496.45-2.496 2s1.124 2.054 2.5 2H7l1.061.177-.842-1.052a1 1 0 0 1 1.562-1.25l2 2.5a1 1 0 0 1 0 1.249l-2 2.5a1 1 0 0 1-1.562-1.25l.842-1.052L7 16.002H5.5c-2.477 0-4.5-1.397-4.5-4 0-2.603 2.015-4 4.5-4h6c1.378 0 2.5-.5 2.5-2s-1.124-2.055-2.5-2H5.829A3.001 3.001 0 0 1 0 3a3 3 0 0 1 5.829-1v.002zm9.171 16a3 3 0 1 1 .001-6A3 3 0 0 1 15 18.003zM3 4.403a1.4 1.4 0 1 0 0-2.8 1.4 1.4 0 0 0 0 2.8zm12 12a1.4 1.4 0 1 0 0-2.8 1.4 1.4 0 0 0 0 2.8z" fill="#000"/></svg>
