<svg width="86" height="35" fill="none" xmlns="http://www.w3.org/2000/svg"><path d="M49.476 26.241c1.607 0 2.926-.752 3.851-2.151l.174 1.862h3.157V6h-3.412v7.206c-.856-1.296-2.128-1.978-3.62-1.978-3.296 0-5.598 2.787-5.598 7.61 0 4.754 2.232 7.403 5.448 7.403zm20.993-1.26v-2.788c-1.065.717-2.846 1.353-4.511 1.353-2.499 0-3.447-1.18-3.586-3.585h8.235v-1.816c0-5.02-2.209-6.917-5.62-6.917-4.165 0-6.143 3.18-6.143 7.553 0 5.02 2.464 7.46 6.836 7.46 2.174 0 3.782-.578 4.788-1.26zm-36.781-9.393c.636-.774 1.63-1.434 2.868-1.434 1.203 0 1.747.52 1.747 1.608v10.19h3.412V15.415c0-2.868-1.145-4.13-3.933-4.13-2.035 0-3.238.753-3.932 1.435h-.174l-.08-1.203h-3.332v14.435h3.412V15.588h.012zm-6.2.52c0-3.504-1.78-4.822-5.401-4.822-2.244 0-4.048.948-5.078 1.689v2.96c1.087-.89 2.753-1.92 4.685-1.92 1.63 0 2.382.579 2.382 2.129v.913h-.543c-5.228 0-7.553 1.689-7.553 4.708 0 2.787 1.781 4.395 4.418 4.395 2.013 0 2.869-.66 3.528-1.353h.139c.023.37.138.856.254 1.145h3.331a36.183 36.183 0 0 1-.173-3.528V16.11h.011zm53.483 9.844h3.851l-4.707-7.437 4.071-6.998h-3.412l-2.464 4.36-2.752-4.36h-3.864l4.361 6.917-4.534 7.518h3.47l2.903-4.881 3.077 4.88zm-30.489-12.03c1.839 0 2.753 1.47 2.753 4.79 0 3.354-.972 4.823-2.903 4.823-1.863 0-2.788-1.435-2.788-4.708.012-3.412.983-4.904 2.938-4.904zm14.446 0c1.689 0 2.21 1.412 2.21 3.216v.29h-4.766c.081-2.302.914-3.505 2.556-3.505zm-40.852 8.583c-.428.636-1.237 1.145-2.44 1.145-1.434 0-2.152-.833-2.152-2.093 0-1.666 1.18-2.244 4.106-2.244h.486v3.192z" fill="#000"/><path d="M10.925 22.563v3.389h-3.47v-5.714L.91 6h3.62l5.1 11.138c.984 2.128 1.296 2.869 1.296 5.425zM17.449 6l-4.257 9.646H9.665L13.92 6h3.528z" fill="#FC3F1D"/></svg>
