<svg xmlns="http://www.w3.org/2000/svg" width="24" height="24"><path fill="#FF78DF" fill-rule="evenodd" d="M14.5 18.29l6.73 1.5c.4.08.77-.2.77-.56V4.6c0-.37-.38-.64-.77-.55l-6.73 1.5v12.74z" clip-rule="evenodd"/><path fill="#30C0FF" fill-rule="evenodd" d="M9.5 18.35l-6.73 1.44c-.4.08-.77-.19-.77-.56V4.6c0-.37.38-.64.77-.56L9.5 5.48v12.87z" clip-rule="evenodd"/><path fill="#C02FFF" fill-rule="evenodd" d="M9.5 5.48v12.87l6.64 2.44c.41.15.86-.13.86-.53V3.57c0-.4-.45-.68-.86-.53L9.5 5.48z" clip-rule="evenodd"/><path fill="#481EFC" fill-rule="evenodd" d="M5.75 7.25v9.33c0 .24.16.44.39.53l3.36 1.24V5.48L6.14 6.72a.57.57 0 00-.39.53z" clip-rule="evenodd"/></svg>