<svg width="21" height="19" xmlns="http://www.w3.org/2000/svg"><path fill-rule="evenodd" clip-rule="evenodd" d="M17.986 9.503C18.26 4.586 14.53.351 9.604.02A8.978 8.978 0 002.2 3.122 8.956 8.956 0 00.536 5.96 8.987 8.987 0 00.02 8.4a8.975 8.975 0 002.694 7.035A8.96 8.96 0 008.4 17.984c.454.03.9.015 1.34-.02a9.002 9.002 0 008.244-8.36c.002-.034 0-.067.002-.1z" fill="#FC0"/><path fill-rule="evenodd" clip-rule="evenodd" d="M9.567 7.492c1.133.561 2.538-.022 3.14-1.303.6-1.281.17-2.775-.963-3.336-1.133-.562-2.538.021-3.14 1.302-.6 1.281-.17 2.775.963 3.337z" fill="#F33"/><path fill-rule="evenodd" clip-rule="evenodd" d="M6.17 18.02C3.269 10.146 1.907 3.36 2.006 1.461 2.081.002 4.541-.603 4.745.771 6.463 13.137 15.523 8.029 19.33 6.235c1.946-1.07 2.004 2.689 1.127 2.873-1.566.884-8.524 2.899-8.668 9.236-.627 1.35-5.938.298-5.618-.325z" fill="#F33"/></svg>