<svg xmlns="http://www.w3.org/2000/svg" width="24" height="24"><path fill="#000" fill-rule="evenodd" d="M11.46 2.93c0-.23.19-.42.42-.42.22 0 .41.19.41.42v1.54h-.83V2.93z" clip-rule="evenodd"/><path fill="#000" d="M11.51 3.5v7.67h.73V3.5h-.73z"/><path fill="url(#paint0_linear)" fill-rule="evenodd" d="M3.1 12.27a8.8 8.8 0 018.78-8.78 8.8 8.8 0 018.78 8.78H3.09z" clip-rule="evenodd"/><path fill="#E00000" fill-rule="evenodd" d="M11.88 13.37c4.85 0 8.78-.5 8.78-1.1 0-.6-3.93-1.1-8.78-1.1-1.78 0-3.44.07-4.82.18-2.39.2-3.97.54-3.97.92 0 .6 3.94 1.1 8.79 1.1z" clip-rule="evenodd"/><path fill="#000" d="M12.26 11.18v2.19h-.02v4.67a9.3 9.3 0 00.04.83v.04c.07.65.5 1.15 1.25 1.18.64.02 1.11-.32 1.23-.85v-.03a2.28 2.28 0 00.04-.4v-.2a.37.37 0 11.73 0v.2a2.75 2.75 0 01-.05.54v.05c-.2.88-1 1.45-1.97 1.42a1.95 1.95 0 01-1.95-1.84v-.05a10.22 10.22 0 01-.05-.89v-4.67h.02v-2.2a65.97 65.97 0 01.73 0z"/><defs><linearGradient id="paint0_linear" x1="11.39" x2="14.02" y1="13.98" y2="4.06" gradientUnits="userSpaceOnUse"><stop stop-color="#F33" stop-opacity=".75"/><stop offset="1" stop-color="#F33"/></linearGradient></defs></svg>